HIERARCHY
ROOT root
{
	OFFSET 0.000000 0.000000 0.000000
	CHANNELS 6 Xposition Yposition Zposition Zrotation Yrotation Xrotation
	JOINT lhip
	{
		OFFSET 0.058581 -0.082280 -0.017664
		CHANNELS 3 Zrotation Yrotation Xrotation
		JOINT lknee
		{
			OFFSET 0.043451 -0.386469 0.008037
			CHANNELS 3 Zrotation Yrotation Xrotation
			JOINT lankle
			{
				OFFSET -0.014790 -0.426874 -0.037428
				CHANNELS 3 Zrotation Yrotation Xrotation
				JOINT ltoe
				{
					OFFSET 0.041054 -0.060286 0.122042
					CHANNELS 3 Zrotation Yrotation Xrotation
					End Site
					{
						OFFSET 0.000000 0.000000 0.000000
					}
				}
			}
		}
	}
	JOINT rhip
	{
		OFFSET -0.060310 -0.090513 -0.013543
		CHANNELS 3 Zrotation Yrotation Xrotation
		JOINT rknee
		{
			OFFSET -0.043257 -0.383688 -0.004843
			CHANNELS 3 Zrotation Yrotation Xrotation
			JOINT rankle
			{
				OFFSET 0.019056 -0.420046 -0.034562
				CHANNELS 3 Zrotation Yrotation Xrotation
				JOINT rtoe
				{
					OFFSET -0.034840 -0.062106 0.130323
					CHANNELS 3 Zrotation Yrotation Xrotation
					End Site
					{
						OFFSET 0.000000 0.000000 0.000000
					}
				}
			}
		}
	}
	JOINT lowerback
	{
		OFFSET 0.004439 0.124404 -0.038385
		CHANNELS 3 Zrotation Yrotation Xrotation
		JOINT upperback
		{
			OFFSET 0.004488 0.137956 0.026820
			CHANNELS 3 Zrotation Yrotation Xrotation
			JOINT chest
			{
				OFFSET -0.002265 0.056032 0.002855
				CHANNELS 3 Zrotation Yrotation Xrotation
				JOINT lowerneck
				{
					OFFSET -0.013390 0.211636 -0.033468
					CHANNELS 3 Zrotation Yrotation Xrotation
					JOINT upperneck
					{
						OFFSET 0.010113 0.088937 0.050410
						CHANNELS 3 Zrotation Yrotation Xrotation
						End Site
						{
							OFFSET 0.000000 0.000000 0.000000
						}
					}
				}
				JOINT lclavicle
				{
					OFFSET 0.071702 0.114000 -0.018898
					CHANNELS 3 Zrotation Yrotation Xrotation
					JOINT lshoulder
					{
						OFFSET 0.122921 0.045205 -0.019046
						CHANNELS 3 Zrotation Yrotation Xrotation
						JOINT lelbow
						{
							OFFSET 0.255332 -0.015649 -0.022946
							CHANNELS 3 Zrotation Yrotation Xrotation
							JOINT lwrist
							{
								OFFSET 0.265709 0.012698 -0.007375
								CHANNELS 3 Zrotation Yrotation Xrotation
								End Site
								{
									OFFSET 0.000000 0.000000 0.000000
								}
							}
						}
					}
				}
				JOINT rclavicle
				{
					OFFSET -0.082954 0.112472 -0.023707
					CHANNELS 3 Zrotation Yrotation Xrotation
					JOINT rshoulder
					{
						OFFSET -0.113228 0.046853 -0.008472
						CHANNELS 3 Zrotation Yrotation Xrotation
						JOINT relbow
						{
							OFFSET -0.260127 -0.014369 -0.031269
							CHANNELS 3 Zrotation Yrotation Xrotation
							JOINT rwrist
							{
								OFFSET -0.269108 0.006794 -0.006027
								CHANNELS 3 Zrotation Yrotation Xrotation
								End Site
								{
									OFFSET 0.000000 0.000000 0.000000
								}
							}
						}
					}
				}
			}
		}
	}
}
MOTION
Frames: 13
Frame Time: 0.033333
0.091224 -1.997981 0.999785 176.796516 1.511906 92.882685 1.052046 2.899890 -2.460573 -3.740725 -3.950240 2.534555 4.832839 11.653902 -11.827331 0.000000 -0.000000 0.000000 0.980243 -1.873166 -5.605240 6.413028 -1.546108 5.796777 4.530215 -3.457204 -9.343342 0.000000 -0.000000 0.000000 0.470178 1.599332 11.879031 -0.391342 0.622672 -4.514221 2.100247 -0.993729 -2.402105 -0.934677 8.798990 2.676293 -0.827299 6.129068 4.706097 -23.493334 -1.117195 2.303546 -54.038502 -7.029920 5.625412 12.436656 -21.822208 -0.055668 5.493675 -3.122462 -3.640342 21.566375 1.914987 3.486829 55.056931 5.098150 14.082832 -6.732808 33.300435 4.176876 -0.213452 3.296615 -4.845197 
0.090432 -1.998199 0.999368 176.712900 1.495704 92.952024 0.949875 2.886513 -2.686427 -3.783510 -3.848056 2.656145 4.681663 11.747226 -11.750219 0.000000 -0.000000 0.000000 0.783244 -1.824711 -5.649380 6.602263 -1.920708 5.470838 4.940482 -3.426670 -9.113835 0.000000 -0.000000 0.000000 0.438271 1.387540 12.152778 -0.368924 0.436175 -4.428183 2.000715 -0.741705 -2.860804 -0.853259 8.760765 2.604050 -0.749511 6.034514 5.000910 -23.111058 -0.864198 2.002885 -54.179985 -7.267162 5.564137 12.065985 -22.104470 0.293808 4.261405 -3.045355 -4.008654 21.377751 2.026846 3.551469 55.424344 5.179324 14.242339 -6.772868 33.034139 4.372621 0.016716 3.272832 -5.065575 
0.089709 -1.997684 0.998996 176.760375 1.523692 93.039843 0.996246 2.704754 -2.800179 -3.913210 -3.976669 2.835748 4.341930 11.485924 -12.334335 0.000000 -0.000000 0.000000 0.660724 -2.011502 -5.581784 6.723023 -2.224032 5.233807 5.119004 -3.081608 -8.781904 0.000000 -0.000000 0.000000 0.586355 1.040408 12.776890 -0.445337 0.090305 -5.206486 1.795068 -0.490357 -3.111506 -0.695658 8.958595 2.609327 -0.478937 5.972004 5.393425 -22.698601 -0.372705 1.639733 -54.247675 -7.168999 5.501308 11.653678 -22.517316 0.791381 2.938295 -3.345656 -4.317819 21.338355 2.025253 3.811795 55.747553 5.055744 14.332440 -6.826970 32.627411 4.629349 0.403232 3.420824 -4.967387 
0.088208 -1.997552 0.998769 176.750513 1.543190 93.026823 0.918026 2.852960 -2.849971 -4.027032 -3.773502 2.688189 4.175703 11.739949 -12.358721 0.000000 -0.000000 0.000000 0.516037 -2.002203 -5.631694 6.791203 -2.582650 5.225206 5.273368 -2.811715 -8.675077 0.000000 -0.000000 0.000000 0.762735 0.759721 13.032143 -0.584996 -0.156539 -5.275874 1.565297 -0.260063 -3.452248 -0.644723 9.307362 2.671350 -0.171389 5.899379 5.533907 -22.122220 -0.020319 1.168296 -54.430473 -7.243108 5.474782 11.190467 -23.297414 1.467703 1.383263 -3.800650 -5.157164 21.219108 2.013583 4.010434 56.197886 4.998423 14.254955 -6.911833 31.612666 5.099979 0.940604 3.173894 -4.818762 
0.087778 -1.997526 0.998694 176.736627 1.543748 93.013835 0.890060 2.862971 -2.835512 -4.067079 -3.812676 2.696559 4.117530 11.776025 -12.567405 0.000000 -0.000000 0.000000 0.510352 -1.995690 -5.662600 6.738834 -2.531305 5.318453 5.329768 -2.855177 -8.635539 0.000000 -0.000000 0.000000 0.726005 0.773734 13.059010 -0.585586 -0.125718 -5.357339 1.588984 -0.281815 -3.472734 -0.583079 9.183253 2.755446 -0.065495 5.794825 5.544169 -22.082775 0.005533 1.117188 -54.457989 -7.322743 5.473813 11.136057 -23.445769 1.507645 1.420137 -3.777160 -5.126388 21.172301 1.962502 3.972486 56.171586 4.863603 14.228558 -6.739699 31.347095 5.221818 1.006606 3.206225 -4.695977 
0.086838 -1.996978 0.998397 176.766299 1.601548 92.853854 0.936757 2.817380 -2.490664 -4.194285 -3.981785 2.469361 3.917089 11.759968 -12.895240 0.000000 -0.000000 0.000000 0.487947 -2.092937 -5.523963 6.732910 -2.545543 5.487977 5.326764 -2.700987 -8.867558 0.000000 -0.000000 0.000000 0.662283 0.807999 12.806063 -0.508172 -0.134410 -5.075029 1.625214 -0.260269 -3.465552 -0.623619 9.180138 3.048432 0.031995 5.788656 5.334072 -22.120490 -0.161355 1.278691 -54.483576 -7.531576 5.446266 11.281724 -23.702034 1.413747 1.379353 -3.748454 -5.085554 21.145621 2.004265 3.956563 56.145382 4.625177 14.011977 -6.750561 30.792719 5.292911 1.252866 3.331163 -4.694357 
0.085771 -1.996439 0.998360 176.895976 1.697710 92.720571 1.013749 2.999799 -2.157243 -4.302948 -4.066149 2.159736 3.749946 11.741745 -13.461316 0.000000 -0.000000 0.000000 0.436307 -2.337948 -5.298816 6.852754 -2.576953 5.463342 5.524088 -2.548887 -8.908435 0.000000 -0.000000 0.000000 0.662308 0.754649 12.710579 -0.418211 -0.248396 -5.054800 1.617689 -0.195995 -3.547386 -0.583902 9.294494 3.459776 0.110145 5.873548 5.212068 -22.168358 -0.121174 1.409512 -54.485874 -7.609009 5.375662 11.333897 -23.952296 1.362505 1.353662 -3.797764 -5.120540 21.209313 1.910451 4.185769 56.052547 4.447732 13.894137 -6.879341 30.266876 5.317858 1.346402 3.198173 -4.456330 
0.084790 -1.996648 0.998096 176.842984 1.717274 92.583489 0.951602 2.844114 -2.094027 -4.388384 -4.177848 2.308044 3.800666 11.902049 -13.549274 0.000000 -0.000000 0.000000 0.443579 -2.202008 -5.236732 6.766434 -2.557105 5.584601 5.352266 -2.749368 -9.042816 0.000000 -0.000000 0.000000 0.568376 0.784055 12.620182 -0.375053 -0.221617 -4.855765 1.642048 -0.206400 -3.481194 -0.547249 9.255960 3.253217 0.123105 5.906740 5.097944 -22.165947 -0.012977 1.335541 -54.535268 -7.743009 5.387716 11.341947 -24.043003 1.297182 1.514095 -3.734628 -5.112843 21.099442 1.837664 4.118954 56.106901 4.248635 13.906777 -7.038699 30.016646 5.204788 1.222531 2.893155 -4.468977 
0.083752 -1.996394 0.997814 176.831992 1.761158 92.560515 0.942595 2.879709 -1.920052 -4.443475 -4.189227 2.208262 3.641490 11.716214 -14.067349 0.000000 -0.000000 0.000000 0.435183 -2.280945 -5.242858 6.687520 -2.565748 5.700643 5.522860 -2.602924 -9.080630 0.000000 -0.000000 0.000000 0.457191 0.640589 12.884237 -0.286181 -0.207735 -5.347758 1.729849 -0.120751 -3.432411 -0.373544 9.151301 2.972855 0.087197 5.716509 5.344497 -22.258397 0.318048 1.192145 -54.635374 -7.590313 5.442552 11.332736 -23.881825 1.410976 1.577049 -3.929755 -4.977883 21.058319 1.559093 4.006065 56.053431 4.056001 13.932115 -7.014517 29.702790 5.157745 1.204576 3.117572 -4.360324 
0.082776 -1.996733 0.997564 176.849203 1.787155 92.509425 0.979553 3.092075 -1.821354 -4.648650 -4.390494 2.317449 3.536076 11.574710 -14.119962 0.000000 -0.000000 0.000000 0.388551 -2.374161 -5.331306 6.697987 -2.693732 5.910086 5.577504 -2.520283 -9.295514 0.000000 -0.000000 0.000000 0.447546 0.573445 12.914432 -0.270173 -0.241252 -5.331033 1.711105 -0.062776 -3.344483 -0.350776 9.047456 2.753151 0.111611 5.583612 5.217204 -22.301033 0.370195 1.134197 -54.630631 -7.483526 5.422839 11.338849 -23.730060 1.402506 1.600965 -3.905520 -4.883879 21.028117 1.478453 3.973279 56.033704 3.961438 13.831813 -7.037332 29.659131 5.006797 1.266681 3.199330 -4.359722 
0.081755 -1.997015 0.997617 176.840078 1.806872 92.437378 0.961165 3.354346 -1.617105 -4.732790 -4.576806 2.128089 3.304303 11.514256 -14.510251 0.000000 -0.000000 0.000000 0.327371 -2.409553 -5.254034 6.717976 -2.689470 5.884330 5.521648 -2.505283 -9.213756 0.000000 -0.000000 0.000000 0.638378 0.593084 13.046252 -0.399107 -0.216349 -5.357741 1.594915 -0.160008 -3.439328 -0.382576 9.162119 2.960203 0.071774 5.758793 5.054460 -22.277601 0.397795 1.146818 -54.579137 -7.274352 5.352114 11.249310 -23.391330 1.542306 1.584839 -3.967263 -4.901373 21.082797 1.368446 4.008346 56.065155 3.919108 13.716958 -7.071074 29.574608 5.091460 1.174234 3.161737 -4.397069 
0.080806 -1.997306 0.997477 176.782878 1.877984 92.468661 1.019495 3.298998 -1.530332 -4.799144 -4.596646 1.777598 3.020745 11.518286 -15.103461 0.000000 -0.000000 0.000000 0.424569 -2.302303 -5.438433 6.570361 -2.701152 6.089708 5.588314 -2.546843 -9.319674 0.000000 -0.000000 0.000000 0.644350 0.501951 12.982963 -0.362872 -0.176753 -5.393938 1.597445 -0.086442 -3.538379 -0.309411 9.313726 3.277626 0.207254 5.690658 5.115243 -22.407681 0.306651 1.376944 -54.479706 -7.065907 5.310145 11.294747 -22.913247 1.393244 1.639617 -3.858535 -4.698398 21.162810 1.448553 4.183158 55.976760 3.856036 13.697974 -7.017606 29.362377 4.982441 1.124913 3.363840 -4.449778 
0.079923 -1.997427 0.997201 176.701518 1.865538 92.435001 0.974744 3.259517 -1.212626 -4.829264 -4.803804 1.198928 2.826166 11.582932 -15.508390 0.000000 -0.000000 0.000000 0.401817 -2.227591 -5.528013 6.480489 -2.654379 6.209730 5.598705 -2.455971 -9.422312 0.000000 -0.000000 0.000000 0.568348 0.527494 12.917334 -0.344386 -0.140013 -5.217762 1.631530 -0.048171 -3.624991 -0.296805 9.383299 3.466756 0.177669 5.679552 4.900524 -22.409451 0.327266 1.449061 -54.465440 -6.941448 5.264627 11.242641 -22.602830 1.385880 1.442859 -3.745178 -4.669165 21.228423 1.479860 4.264012 55.984861 3.929373 13.659449 -7.102502 29.202091 4.959274 1.196250 3.050365 -4.332264 
